<?xml version="1.0" standalone="no"?><!DOCTYPE svg PUBLIC "-//W3C//DTD SVG 1.1//EN" "http://www.w3.org/Graphics/SVG/1.1/DTD/svg11.dtd"><svg t="1545729553093" class="icon" style="" viewBox="0 0 1024 1024" version="1.1" xmlns="http://www.w3.org/2000/svg" p-id="3052" xmlns:xlink="http://www.w3.org/1999/xlink" width="48" height="48"><defs><style type="text/css"></style></defs><path d="M513.984496 513.984496c141.383442 0 256-114.616558 256-256S655.367938 1.984496 513.984496 1.984496 257.984496 116.601054 257.984496 257.984496s114.616558 256 256 256z m0-59.534884c-108.50431 0-196.465116-87.960806-196.465116-196.465116s87.960806-196.465116 196.465116-196.465116 196.465116 87.960806 196.465116 196.465116-87.960806 196.465116-196.465116 196.465116z" p-id="3053"></path><path d="M1020.031008 992.248062c0-281.647628-227.423256-510.015504-508.031008-510.015504S3.968992 710.600434 3.968992 992.248062a29.767442 29.767442 0 1 0 59.534884 0c0-248.820093 200.827039-450.48062 448.496124-450.48062s448.496124 201.660527 448.496124 450.48062a29.767442 29.767442 0 1 0 59.534884 0z" p-id="3054"></path></svg>